
<svg width="32" height="32" viewBox="0 0 32 32" fill="none" xmlns="http://www.w3.org/2000/svg">
  <defs>
    <linearGradient id="solanaGradient" x1="0%" y1="0%" x2="100%" y2="100%">
      <stop offset="0%" style="stop-color:#9945ff"/>
      <stop offset="50%" style="stop-color:#14f195"/>
      <stop offset="100%" style="stop-color:#00ff88"/>
    </linearGradient>
  </defs>
  <path d="M5.5 21.5h19.8c.7 0 1.1-.8.7-1.4L22.7 14c-.2-.3-.5-.5-.8-.5H2.1c-.7 0-1.1.8-.7 1.4L4.7 21c.2.3.5.5.8.5z" fill="url(#solanaGradient)"/>
  <path d="M5.5 10.5h19.8c.7 0 1.1-.8.7-1.4L22.7 3c-.2-.3-.5-.5-.8-.5H2.1c-.7 0-1.1.8-.7 1.4L4.7 10c.2.3.5.5.8.5z" fill="url(#solanaGradient)"/>
  <path d="M26.5 10.5H6.7c-.7 0-1.1.8-.7 1.4L9.3 18c.2.3.5.5.8.5h19.8c.7 0 1.1-.8.7-1.4L27.3 11c-.2-.3-.5-.5-.8-.5z" fill="url(#solanaGradient)"/>
</svg>